<?xml version="1.0" encoding="UTF-8"?>
<svg id="Calque_2" xmlns="http://www.w3.org/2000/svg" viewBox="0 0 23.2 9.15">
  <defs>
    <style>
      .cls-1 {
        fill: #f6f6f6;
      }

      .cls-2 {
        fill: #f7d914;
      }
    </style>
  </defs>
  <g id="Calque_1-2" data-name="Calque_1">
    <g>
      <g>
        <path class="cls-1" d="M7.83,9.02h-1.69c-.1,0-.21-.08-.33-.25s-.25-.38-.38-.64-.27-.55-.41-.86-.28-.62-.43-.91-.29-.55-.45-.78-.3-.39-.45-.48h-.38c-.14,0-.28,0-.41,0-.13,0-.25,0-.36,0s-.18,0-.23,0v3.15l1.14.15v.64H0v-.64l.98-.15V.9L.07.74V.1h1.59c.16,0,.31,0,.46-.01l.44-.03c.15,0,.29-.02.44-.03s.3-.01.47-.01c.59,0,1.09.05,1.5.15s.74.25.99.44.43.44.55.73.17.63.17,1.02c0,.27-.04.53-.12.79s-.19.5-.34.73-.33.42-.54.59-.46.3-.73.39c.16.1.32.25.47.45s.3.42.44.66.28.49.42.74.26.49.39.71.24.4.36.54.22.23.33.26l.47.16v.64ZM2.32,4.39c.05,0,.14.01.26.01s.24,0,.38,0,.26,0,.38,0,.22,0,.29,0c.5,0,.9-.16,1.19-.48s.43-.8.43-1.46c0-.24-.03-.47-.09-.69s-.16-.4-.31-.56-.34-.28-.59-.38-.57-.14-.95-.14c-.15,0-.28,0-.39,0s-.2.01-.27.02-.14.02-.19.02-.1.01-.14.02v3.62Z"/>
        <path class="cls-1" d="M12.21,9.15c-.66,0-1.25-.11-1.77-.34s-.96-.53-1.32-.93-.63-.86-.82-1.41-.28-1.13-.28-1.77c0-.73.12-1.39.36-1.97s.57-1.08.98-1.48.9-.72,1.45-.93,1.14-.33,1.77-.33c.31,0,.61.01.9.04s.56.06.8.11.46.08.64.13.33.08.44.1l-.11,2.05h-.86l-.34-1.34s-.09-.08-.17-.13-.17-.09-.29-.13-.27-.07-.46-.1-.41-.04-.68-.04c-.42,0-.81.08-1.17.23s-.66.38-.92.68-.46.68-.6,1.14-.22.99-.22,1.6c0,.51.05,1.01.16,1.5s.28.93.5,1.32.51.7.86.93.76.35,1.24.35c.17,0,.34,0,.51-.02s.34-.04.5-.08.31-.09.45-.15.25-.14.35-.23v-2.53l-1.42-.13v-.78h3.46v.78l-.68.13v3.12c-.16,0-.34.04-.55.11s-.45.13-.72.21-.57.14-.9.2-.7.09-1.1.09Z"/>
      </g>
      <path class="cls-2" d="M20.87,4.5c-1.28,0-2.33,1.04-2.33,2.33s1.04,2.33,2.33,2.33,2.33-1.04,2.33-2.33-1.04-2.33-2.33-2.33Z"/>
    </g>
  </g>
</svg>